<?xml version="1.0" encoding="UTF-8"?>
<svg version="1.1" xmlns="http://www.w3.org/2000/svg" width="1024" height="1024">
<path d="M0 0 C337.92 0 675.84 0 1024 0 C1024 337.92 1024 675.84 1024 1024 C686.08 1024 348.16 1024 0 1024 C0 686.08 0 348.16 0 0 Z " fill="#F1F1F1" transform="translate(0,0)"/>
<path d="M0 0 C3.46299751 0.00685025 6.92595133 -0.00372022 10.38893986 -0.01193976 C17.15626468 -0.02521789 23.92348919 -0.02242545 30.6908178 -0.01370184 C36.19758386 -0.0069 41.70432198 -0.00601934 47.21109104 -0.00927329 C47.99775049 -0.00973299 48.78440993 -0.01019269 49.59490754 -0.01066632 C51.19352491 -0.0116256 52.79214227 -0.01259824 54.39075962 -0.01358409 C69.35152188 -0.02212124 84.31222884 -0.01233141 99.27298203 0.00381701 C112.07481544 0.01720818 124.87656717 0.01489875 137.67839909 0.00106072 C152.5829516 -0.01504293 167.48745569 -0.02128644 182.3920157 -0.01210248 C183.98565848 -0.01114696 185.57930127 -0.01020384 187.17294407 -0.00927329 C187.95681696 -0.00881046 188.74068985 -0.00834764 189.54831646 -0.00787079 C195.03835219 -0.00529442 200.52835688 -0.00962269 206.01838779 -0.01671195 C212.72375398 -0.02518101 219.429015 -0.02273493 226.13436934 -0.00686972 C229.54734471 0.0009428 232.96000299 0.00257517 236.37299824 -0.00581717 C260.5658613 -0.05978643 283.92992 1.09015815 304.45964909 15.39217401 C305.18023502 15.89104119 305.90082096 16.38990838 306.64324284 16.90389276 C325.42951003 30.73406807 338.96209764 50.25728707 343.45964909 73.39217401 C344.43314756 80.13325942 344.6059215 86.79024063 344.60009098 93.59253716 C344.60454766 95.2369684 344.60454766 95.2369684 344.60909438 96.91462046 C344.6177345 100.57145279 344.61928564 104.22825221 344.6207819 107.88509393 C344.62541334 110.5139195 344.63043844 113.14274441 344.63582706 115.77156854 C344.64936153 122.9019118 344.65542719 130.03224941 344.65983772 137.16260338 C344.66260792 141.62103336 344.66684661 146.07946119 344.6713419 150.53788972 C344.6835272 162.90049851 344.6938286 175.2631056 344.69721699 187.62572026 C344.69743655 188.41566973 344.69765612 189.2056192 344.69788234 190.01950653 C344.69810062 190.81125821 344.69831889 191.60300989 344.69854379 192.41875404 C344.69898724 194.02293114 344.6994338 195.62710824 344.69988346 197.23128533 C344.70010489 198.02699885 344.70032632 198.82271236 344.70055446 199.64253841 C344.70450081 212.53002148 344.72195316 225.41744797 344.74524298 238.30490919 C344.76900297 251.56030942 344.78142091 264.8156813 344.78258491 278.07110316 C344.78349895 285.50387929 344.789183 292.93658162 344.80740452 300.36933732 C344.82286826 306.69906777 344.82788914 313.02870157 344.81966642 319.35844734 C344.81578222 322.58252665 344.81823989 325.80637276 344.83072376 329.0304358 C344.93275409 357.03374948 339.75643032 380.87418054 320.45964909 402.39217401 C319.90793034 403.02639276 319.35621159 403.66061151 318.78777409 404.31404901 C303.75280737 420.53990417 280.26832108 430.19644457 258.49732566 431.5804987 C255.42336303 431.65281712 252.35485139 431.66853673 249.28005314 431.65959954 C247.53187981 431.66639621 247.53187981 431.66639621 245.74838984 431.67333019 C242.54935904 431.68371804 239.35047149 431.68531428 236.15142941 431.68294144 C232.687035 431.68253015 229.22267304 431.6936019 225.75829411 431.70305657 C218.98403758 431.71960096 212.20981589 431.72516315 205.43554084 431.72628133 C199.92300943 431.72723499 194.41048942 431.73136105 188.89796162 431.73768258 C173.23350242 431.75527753 157.56907053 431.76452426 141.90460138 431.76302163 C140.64045107 431.76290176 140.64045107 431.76290176 139.35076237 431.76277947 C138.08505004 431.76265683 138.08505004 431.76265683 136.79376777 431.76253171 C123.12993995 431.76171944 109.46622253 431.78084693 95.80242662 431.80905621 C81.73781763 431.83786144 67.67326235 431.8515923 53.60862315 431.84986866 C45.72638157 431.84920736 37.84425573 431.85458466 29.9620409 431.87622476 C23.24929439 431.89453754 16.53671605 431.89870188 9.82395522 431.88520591 C6.40685176 431.87872637 2.99033001 431.88059666 -0.42678356 431.89591241 C-31.24005438 432.0249934 -56.92318334 426.39967538 -79.72394466 404.29451776 C-97.9462458 385.91166771 -105.69221569 361.70286354 -105.68752193 336.33261895 C-105.69119862 335.25140438 -105.69487531 334.17018982 -105.69866341 333.05621117 C-105.70963508 329.45017629 -105.71353298 325.84417029 -105.71735287 322.23812127 C-105.72362246 319.64534183 -105.7302697 317.05256328 -105.73726559 314.4597857 C-105.75695064 306.69327249 -105.76708527 298.92675814 -105.77599338 291.16022626 C-105.78038865 287.49306946 -105.78575215 283.82591408 -105.79098225 280.1587584 C-105.80798525 267.95228556 -105.82247699 255.74581357 -105.82973099 243.53933072 C-105.83164053 240.37772964 -105.83356092 237.21612857 -105.83551693 234.05452752 C-105.83624254 232.87598888 -105.83624254 232.87598888 -105.83698281 231.67364138 C-105.84527433 218.9602045 -105.87060055 206.24686196 -105.90309761 193.53346623 C-105.93626568 180.44980895 -105.95418845 167.36619948 -105.95737523 154.28249997 C-105.95953114 146.94905472 -105.96814426 139.61574714 -105.9938364 132.28234315 C-106.01797507 125.37690847 -106.02130835 118.47172408 -106.01107502 111.56625581 C-106.01058208 109.04369812 -106.01683024 106.52112786 -106.03063107 103.99860787 C-106.1265362 85.416791 -104.98515359 68.30441958 -96.54035091 51.39217401 C-95.9873431 50.27455682 -95.43433529 49.15693963 -94.86456966 48.00545526 C-90.09620102 38.83990076 -83.88168333 31.60535349 -76.54035091 24.39217401 C-75.85070248 23.70381463 -75.16105404 23.01545526 -74.45050716 22.30623651 C-64.6033193 13.10442459 -52.38944022 7.12053028 -39.54035091 3.39217401 C-38.70731316 3.13744002 -37.8742754 2.88270604 -37.01599407 2.62025285 C-24.84682596 -0.53995451 -12.48504623 -0.03660015 0 0 Z " fill="#F1F1F1" transform="translate(392.54035091400146,194.60782599449158)"/>
<path d="M0 0 C0.91397049 -0.00708481 1.82794098 -0.01416962 2.76960754 -0.02146912 C4.26274223 -0.01775299 4.26274223 -0.01775299 5.78604126 -0.01396179 C6.8401268 -0.01907272 7.89421234 -0.02418365 8.98023987 -0.02944946 C12.46846173 -0.0433616 15.95648634 -0.04238734 19.44473267 -0.04008484 C21.86844964 -0.04397108 24.29216594 -0.0483056 26.71588135 -0.05307007 C31.79837246 -0.06053593 36.88079412 -0.06023847 41.96328735 -0.05497742 C48.47571873 -0.04918461 54.98786554 -0.06610772 61.50024986 -0.08932209 C66.5068325 -0.10405634 71.51334658 -0.10493149 76.51994705 -0.10181236 C78.92091053 -0.1023258 81.32187781 -0.10756776 83.72282028 -0.11762428 C87.08132135 -0.12996401 90.43926778 -0.12321113 93.79776001 -0.11161804 C94.78913467 -0.11926178 95.78050934 -0.12690552 96.80192566 -0.13478088 C103.00342355 -0.08747905 107.54279218 0.60547353 112.28457642 4.97944641 C112.7628186 5.56725891 113.24106079 6.15507141 113.73379517 6.76069641 C114.22492798 7.34850891 114.71606079 7.93632141 115.22207642 8.54194641 C117.83133938 12.28160669 117.72050507 15.84735029 117.42129517 20.26069641 C115.52870775 25.51788367 112.85925972 28.09072173 108.42129517 31.26069641 C107.10129517 31.59069641 105.78129517 31.92069641 104.42129517 32.26069641 C104.42129517 73.51069641 104.42129517 114.76069641 104.42129517 157.26069641 C122.34101927 158.51437519 122.34101927 158.51437519 127.90957642 151.48335266 C129.4612993 148.49215467 129.4612993 148.49215467 130.73379517 145.32319641 C131.70812513 143.29280174 132.68337898 141.26285014 133.65957642 139.23335266 C134.10953979 138.23755188 134.55950317 137.2417511 135.02310181 136.21577454 C141.55636957 122.40772966 141.55636957 122.40772966 147.42129517 119.26069641 C151.07638189 118.80381057 153.61496767 118.99817118 157.10879517 120.13569641 C163.13663422 125.67479176 164.70597358 136.2277116 166.83926392 143.88569641 C167.14197708 144.95440979 167.44469025 146.02312317 167.75657654 147.1242218 C168.71239928 150.50163622 169.6609912 153.88102382 170.60879517 157.26069641 C171.56850862 160.66858004 172.52975582 164.0760191 173.4931488 167.48286438 C174.08986922 169.59448925 174.68425355 171.70677595 175.27607727 173.81977844 C175.5433815 174.76836731 175.81068573 175.71695618 176.08609009 176.69429016 C176.32051315 177.53016663 176.55493622 178.36604309 176.79646301 179.22724915 C177.37220128 181.29981947 177.37220128 181.29981947 178.42129517 183.26069641 C178.64774467 182.20908577 178.64774467 182.20908577 178.87876892 181.13623047 C179.34412411 178.97518762 179.80948755 176.81414656 180.27485657 174.65310669 C180.83291232 172.06162979 181.39094706 169.47014837 181.94895935 166.87866211 C183.51495211 159.60625854 185.08161141 152.33399929 186.64932251 145.06196594 C187.29602664 142.06181546 187.94266693 139.06165123 188.58926392 136.06147766 C188.75114197 135.31040237 188.91302002 134.55932709 189.07980347 133.78549194 C191.024339 124.76205127 192.96323112 115.73744832 194.89161682 106.71054077 C195.87784025 102.09459811 196.86666051 97.47921356 197.85571289 92.86387634 C198.31069487 90.73702811 198.76436111 88.60989792 199.21661377 86.48246765 C203.19111826 67.78931455 203.19111826 67.78931455 205.47598267 58.67475891 C205.75683716 57.54247864 206.03769165 56.41019836 206.32705688 55.24360657 C207.7567389 51.34627169 209.62703987 48.15782406 213.42129517 46.26069641 C217.18151652 45.74793895 219.13317517 46.11663641 222.54629517 47.82319641 C225.63215051 50.69269292 226.33871835 53.82204567 227.36660767 57.83882141 C227.53493103 58.49606705 227.70325439 59.15331268 227.87667847 59.83047485 C229.71590647 67.16692832 231.20917443 74.57532023 232.68261719 81.99220276 C233.54267938 86.31469605 234.42086608 90.63349489 235.30020142 94.95210266 C235.47892288 95.83005493 235.65764435 96.7080072 235.84178162 97.61256409 C237.5014825 105.72569317 239.28672626 113.80773851 241.10879517 121.88569641 C245.01763263 139.23122659 248.72305863 156.61933461 252.42129517 174.01069641 C252.5704324 174.71190865 252.71956963 175.41312088 252.87322617 176.13558197 C254.72514849 184.84340902 256.57456032 193.55176761 258.42129517 202.26069641 C261.17174903 195.58863128 263.62520213 188.87165717 265.88223267 182.01850891 C266.52435653 180.10928265 267.1676188 178.20043894 267.81192017 176.29194641 C268.81169803 173.32613593 269.80507543 170.35890221 270.7796936 167.38471985 C271.73230118 164.48502426 272.71099156 161.59526678 273.69473267 158.70600891 C273.97932343 157.81745209 274.26391418 156.92889526 274.55712891 156.01341248 C276.48034513 150.46178186 278.09940902 147.89565284 283.42129517 145.26069641 C286.35544859 144.68357432 288.66707588 145.11173068 291.42129517 146.26069641 C293.79125511 148.35371722 295.54792232 150.7297089 297.42129517 153.26069641 C298.99914654 155.14241796 299.85530178 156.14857446 302.29820251 156.63250732 C303.00180405 156.63154556 303.70540558 156.6305838 304.43032837 156.6295929 C305.23158646 156.63647629 306.03284454 156.64335968 306.85838318 156.65045166 C307.72090195 156.64429337 308.58342072 156.63813507 309.47207642 156.63179016 C311.30345845 156.64917732 313.13483862 156.66676165 314.96621704 156.68452454 C317.84963485 156.69458497 320.73292891 156.69819692 323.61636353 156.69648743 C326.4019747 156.70006698 329.186635 156.72745058 331.97207642 156.75679016 C332.82852249 156.74860764 333.68496857 156.74042511 334.56736755 156.73199463 C340.12689617 156.8008141 343.14463685 157.63873641 347.42129517 161.26069641 C349.15761153 164.73332914 349.02319919 168.47262654 348.42129517 172.26069641 C346.23970371 175.01639088 344.54952023 176.69658388 341.42129517 178.26069641 C339.96727213 178.36524567 338.50865735 178.40935109 337.05093384 178.42182922 C336.14626877 178.43143677 335.2416037 178.44104431 334.30952454 178.45094299 C333.32933853 178.45519287 332.34915253 178.45944275 331.33926392 178.46382141 C330.33293411 178.46952148 329.32660431 178.47522156 328.28977966 178.48109436 C326.15711521 178.49055226 324.0244361 178.49708147 321.89175415 178.50093079 C318.63246041 178.51062602 315.37379991 178.541638 312.11465454 178.57319641 C310.04369475 178.57972742 307.97273044 178.5849775 305.90176392 178.58882141 C304.9276506 178.60116821 303.95353729 178.61351501 302.9499054 178.62623596 C297.94632268 178.60980899 294.49705548 178.5290711 290.42129517 175.26069641 C287.51527239 181.54153781 285.02594595 187.89052569 282.74160767 194.42085266 C282.40636078 195.36899338 282.07111389 196.31713409 281.72570801 197.29400635 C280.66248358 200.30254262 279.60408057 203.31274398 278.54629517 206.32319641 C275.85174038 213.97396305 273.14575193 221.62052558 270.42129517 229.26069641 C270.12734863 230.08946289 269.8334021 230.91822937 269.5305481 231.77210999 C268.729862 234.02044713 267.9176749 236.26422615 267.10098267 238.50679016 C266.87121735 239.15656326 266.64145203 239.80633636 266.40472412 240.47579956 C265.22373759 243.6761943 264.23831156 246.23462834 261.42129517 248.26069641 C257.14602743 249.22607945 254.70255741 249.74472881 250.60879517 248.19819641 C244.77949975 243.03510619 244.03690562 234.90956273 242.51040649 227.64936829 C242.23686844 226.38041214 241.96333038 225.11145599 241.6815033 223.80404663 C240.93443805 220.33669429 240.19766598 216.86722976 239.46309876 213.39721107 C238.69153936 209.75941246 237.91160265 206.12340929 237.13288879 202.48713684 C235.82686508 196.38211096 234.52747386 190.27570218 233.23208618 184.16841125 C231.73592737 177.11492845 230.22958704 170.06367959 228.7177065 163.01355124 C227.26127882 156.22097258 225.81180634 149.42692812 224.36557579 142.63217163 C223.75096404 139.74508563 223.13398379 136.85852105 222.51508522 133.97235107 C221.65090586 129.94040561 220.7969351 125.90636367 219.94400024 121.87202454 C219.6868927 120.67807571 219.42978516 119.48412689 219.16488647 118.2539978 C218.81799522 116.60125099 218.81799522 116.60125099 218.46409607 114.91511536 C218.2615109 113.96239998 218.05892572 113.0096846 217.85020161 112.02809906 C217.39107087 109.06568233 217.34758748 106.25378417 217.42129517 103.26069641 C216.76129517 103.26069641 216.10129517 103.26069641 215.42129517 103.26069641 C215.37311803 103.93583723 215.32494089 104.61097805 215.27530384 105.30657768 C214.75293983 111.84825161 213.77900068 118.11096921 212.35171509 124.51118469 C212.14341568 125.47059464 211.93511627 126.43000458 211.72050476 127.41848755 C211.03731211 130.55742861 210.34467462 133.6942001 209.65176392 136.83100891 C209.1689856 139.03888753 208.68676168 141.24688744 208.20506287 143.45500183 C206.93851266 149.25294949 205.66373989 155.04906012 204.38742065 160.84486389 C203.35531939 165.53838829 202.3291688 170.23320383 201.30333996 174.92810249 C200.06742942 180.58370148 198.82867178 186.23867546 197.58926392 191.89350891 C197.24211869 193.47810598 197.24211869 193.47810598 196.88796043 195.09471512 C195.80433105 200.03604098 194.71397284 204.97560922 193.60644531 209.91163635 C192.82845105 213.38416389 192.09057396 216.86121939 191.38677979 220.34950256 C191.06156722 221.89007453 190.73624663 223.4306237 190.41079712 224.97114563 C190.2817332 225.6589316 190.15266928 226.34671757 190.01969433 227.05534554 C189.27802973 230.46732071 188.49904665 232.18259189 186.01179504 234.68113708 C182.49151684 236.82762947 180.48126987 236.90174505 176.42129517 236.26069641 C171.24976635 232.77575814 169.30771624 229.67536761 167.72061157 223.62471008 C167.50515686 222.87295502 167.28970215 222.12119995 167.06771851 221.34666443 C166.36589121 218.87918923 165.69432476 216.40455733 165.02285767 213.92866516 C164.54003821 212.20893169 164.05534027 210.4897246 163.56884766 208.77102661 C162.29742003 204.26012789 161.0515478 199.74255672 159.8109436 195.22309875 C158.53892746 190.60696355 157.24276202 185.99762584 155.94863892 181.38764954 C153.41590207 172.35180562 150.91012299 163.30872507 148.42129517 154.26069641 C147.46073102 155.85891822 146.50051085 157.45734677 145.54043579 159.05586243 C144.73829651 160.39101646 144.73829651 160.39101646 143.91995239 161.75314331 C142.77206858 163.67378237 141.64002862 165.60389852 140.51504517 167.53804016 C139.98910767 168.41589172 139.46317017 169.29374329 138.92129517 170.19819641 C138.13238892 171.54204407 138.13238892 171.54204407 137.32754517 172.91304016 C134.81386995 176.00877541 133.20970723 176.85760872 129.42129517 178.26069641 C125.12265079 178.62261558 120.85615581 178.54305226 116.54629517 178.44819641 C115.38098267 178.43466125 114.21567017 178.4211261 113.01504517 178.40718079 C110.14998399 178.37195462 107.2858814 178.32269356 104.42129517 178.26069641 C104.42590413 178.8189338 104.4305131 179.37717119 104.43526173 179.95232487 C104.5461927 193.60189878 104.62834906 207.25139259 104.68035603 220.90132236 C104.70635869 227.50264954 104.74158606 234.10364937 104.79849243 240.70478821 C104.85314496 247.08500283 104.88278573 253.46490421 104.89568138 259.84533501 C104.90486178 262.26960614 104.92278772 264.69386172 104.94994545 267.11799812 C105.16579956 287.19896002 103.6137257 302.20387715 89.32754517 317.50288391 C79.57090489 326.87067258 66.59524785 332.24383822 53.10879517 332.63569641 C36.80614783 332.17211402 22.78478088 326.96615832 11.19082642 315.38569641 C1.05250869 304.47662938 -3.07302019 290.93119495 -2.93946838 276.2571106 C-2.94203166 275.20640607 -2.94459493 274.15570155 -2.94723588 273.07315749 C-2.95214286 269.58318248 -2.93573177 266.09364855 -2.91928101 262.60371399 C-2.91843407 260.08980825 -2.91891118 257.57590177 -2.92060852 255.06199646 C-2.92128974 249.66550993 -2.91282918 244.26916323 -2.895895 238.87270546 C-2.87142772 231.07053741 -2.86369187 223.26842188 -2.85993103 215.46621963 C-2.85337862 202.80515264 -2.83345043 190.14414391 -2.80502319 177.48310852 C-2.77745121 165.19014272 -2.75623303 152.89719279 -2.74349976 140.60420227 C-2.7423175 139.4660114 -2.7423175 139.4660114 -2.74111136 138.30482677 C-2.73719601 134.49786568 -2.73340495 130.69090448 -2.72967565 126.8839432 C-2.69861745 95.34281859 -2.64559047 63.80176638 -2.57870483 32.26069641 C-3.3635022 32.12188049 -4.14829956 31.98306458 -4.95687866 31.84004211 C-7.83375247 31.20433846 -9.0862678 30.3831967 -11.26620483 28.44819641 C-12.13825562 27.69602844 -12.13825562 27.69602844 -13.02792358 26.92866516 C-16.61249475 23.0732196 -16.96231399 19.59228882 -16.82870483 14.50679016 C-16.31528444 9.89402883 -14.49484924 7.10636817 -11.14120483 4.01069641 C-7.31497491 1.39766134 -4.67955604 0.01212449 0 0 Z " fill="#010101" transform="translate(353.5787048339844,249.7393035888672)"/>
<path d="M0 0 C3.53591816 0.00685523 7.07179372 -0.00372258 10.60770309 -0.01193976 C17.51592887 -0.02521225 24.42405632 -0.02242813 31.3322858 -0.01370184 C36.95344426 -0.00689834 42.57457536 -0.00602004 48.19573677 -0.00927329 C49.40050095 -0.00996284 49.40050095 -0.00996284 50.6296038 -0.01066632 C52.26180163 -0.0116256 53.89399946 -0.01259824 55.52619728 -0.01358409 C70.79789777 -0.02211943 86.06954406 -0.01233396 101.34123566 0.00381701 C114.40969446 0.01721079 127.47807326 0.01489623 140.5465306 0.00106072 C155.76275535 -0.01504133 170.97893266 -0.02128756 186.19516474 -0.01210248 C187.82193215 -0.01114696 189.44869957 -0.01020384 191.07546699 -0.00927329 C192.27571084 -0.00857905 192.27571084 -0.00857905 193.50020203 -0.00787079 C199.10496438 -0.00529415 204.70969633 -0.00962322 210.31445396 -0.01671195 C217.15886676 -0.02517911 224.00317653 -0.02273872 230.84757773 -0.00686972 C234.33140288 0.00094477 237.81505708 0.00422344 241.29888046 -0.00581717 C273.15941325 -0.0754255 304.25572609 4.09814196 328.83632553 26.39217401 C329.64972396 27.07666619 330.4631224 27.76115838 331.30116928 28.46639276 C344.9756533 40.20242912 354.96050409 54.54510539 361.64882553 71.20467401 C361.9146141 71.85387811 362.18040267 72.50308221 362.45424545 73.17195916 C368.97311987 90.39851006 369.41579512 107.35571129 369.35390365 125.56185174 C369.35933406 128.26272713 369.36631936 130.96355895 369.37514389 133.66442132 C369.39279999 140.19761034 369.38914721 146.73061411 369.37749332 153.26380997 C369.3684071 158.58073804 369.36725723 163.89761472 369.37158859 169.21454835 C369.37220152 169.97539886 369.37281445 170.73624937 369.37344596 171.52015596 C369.37472505 173.06650846 369.3760219 174.61286095 369.37733632 176.15921343 C369.3887045 190.61215073 369.3756882 205.06498605 369.35413486 219.51790661 C369.33627092 231.87879742 369.33936948 244.23953787 369.3578099 256.60042596 C369.37928973 271.00511909 369.38760244 285.40972314 369.37536085 299.81443006 C369.37408685 301.35494799 369.37282936 302.89546594 369.37158859 304.4359839 C369.37066293 305.57249675 369.37066293 305.57249675 369.36971858 306.73196946 C369.36628666 312.03273734 369.37204711 317.333448 369.3815068 322.63420701 C369.39280782 329.1081823 369.38951891 335.58196401 369.36838382 342.05591755 C369.35798029 345.34957989 369.35577414 348.6428603 369.36698043 351.9365294 C369.47934991 388.34425895 360.23769042 417.78975558 334.39882553 444.14217401 C329.26882587 449.23747659 324.02681519 453.61368253 317.83632553 457.39217401 C316.79089584 458.04701776 315.74546615 458.70186151 314.66835678 459.37654901 C296.16052665 470.65488244 276.35188511 475.54296015 254.75174606 475.53934503 C253.56027558 475.54302171 252.3688051 475.5466984 251.14122945 475.55048651 C247.85564722 475.55955566 244.57009435 475.56421025 241.28450179 475.56687582 C237.73212751 475.57080276 234.17976736 475.58037916 230.62740219 475.58908868 C222.05999149 475.60878424 213.49257974 475.61890973 204.92515209 475.62781647 C200.88143254 475.63221003 196.83771428 475.63757399 192.79399574 475.64280534 C179.33679782 475.65980942 165.87960068 475.67430161 152.42239368 475.68155408 C148.93594061 475.68346367 145.44948755 475.68538405 141.96303451 475.68734002 C141.09659548 475.68782376 140.23015646 475.6883075 139.3374617 475.6888059 C125.31455745 475.69709904 111.29173869 475.72242754 97.26887173 475.7549207 C82.84275989 475.78807338 68.41669139 475.80601016 53.99054128 475.80919832 C45.90256835 475.81135565 37.81472017 475.81998992 29.72678459 475.84565949 C22.83647581 475.86747889 15.94632212 475.87536209 9.05598272 475.86569271 C5.5478323 475.86118048 2.04000111 475.86285178 -1.46810448 475.88245416 C-19.57304677 475.96703718 -36.39943303 475.14607452 -53.35117447 468.20467401 C-54.0861818 467.90915643 -54.82118912 467.61363885 -55.5784694 467.30916619 C-68.75196403 461.81654172 -79.67092858 453.96752135 -90.16367447 444.39217401 C-90.90101822 443.73733026 -91.63836197 443.08248651 -92.39804947 442.40779901 C-111.20234898 424.80697467 -123.63271713 397.19647479 -125.35056484 371.60835767 C-125.42455856 368.66894774 -125.44001846 365.73545352 -125.43110001 362.79512811 C-125.43563112 361.68024184 -125.44016224 360.56535557 -125.44483066 359.41668487 C-125.45741544 355.70860175 -125.45585809 352.00066664 -125.45420182 348.29256463 C-125.46019087 345.62229143 -125.46694157 342.9520295 -125.47455704 340.28176141 C-125.49110733 333.79646205 -125.49666392 327.31119907 -125.4977818 320.82588035 C-125.49873537 315.54741047 -125.50286106 310.26895249 -125.50918305 304.99048638 C-125.52678127 289.98923479 -125.53602446 274.9880117 -125.5345221 259.98674971 C-125.53444219 259.1795241 -125.53436228 258.37229849 -125.53427994 257.54061151 C-125.53419818 256.73238747 -125.53411642 255.92416344 -125.53403218 255.09144777 C-125.53322029 242.01021717 -125.55233723 228.92910199 -125.58055668 215.84790474 C-125.60937607 202.3810988 -125.62309192 188.91434896 -125.62136912 175.44751143 C-125.62070821 167.90112801 -125.6260682 160.35486551 -125.64772522 152.80851007 C-125.666057 146.38013055 -125.6701873 139.95192672 -125.65670638 133.52353221 C-125.65023568 130.2521812 -125.65207321 126.98123113 -125.66741288 123.70990014 C-125.82178513 88.48175812 -117.14834492 58.47332237 -91.97617447 32.76717401 C-66.39140093 7.48920822 -35.01123645 -0.10061477 0 0 Z M-77.16367447 49.39217401 C-77.92164322 50.12693963 -78.67961197 50.86170526 -79.46054947 51.61873651 C-100.34649025 73.15286165 -103.62971765 100.77368724 -103.53598893 129.30672479 C-103.53842049 131.90850239 -103.54214334 134.51027905 -103.54705155 137.11205316 C-103.5564805 143.41301365 -103.54999226 149.71385862 -103.53778861 156.01481046 C-103.5240838 163.36805133 -103.52581385 170.72126552 -103.52792194 178.07451592 C-103.53110309 191.20207263 -103.51949368 204.32957486 -103.49985611 217.45711541 C-103.48084796 230.16741873 -103.47377171 242.87765827 -103.4793483 255.58797479 C-103.48541847 269.46409745 -103.48520699 283.34019217 -103.47386247 297.21631253 C-103.47265531 298.69835297 -103.47144932 300.18039342 -103.47024453 301.66243386 C-103.46964099 302.39143312 -103.46903745 303.12043238 -103.46841562 303.87152252 C-103.46455159 308.98570049 -103.46492416 314.099868 -103.46683037 319.21404672 C-103.46918517 326.10719505 -103.460557 333.00026065 -103.44476998 339.89339089 C-103.44054373 342.41642951 -103.43966534 344.93947641 -103.44246018 347.46251702 C-103.4567112 362.63396243 -103.46796235 377.02986716 -98.41367447 391.51717401 C-98.1490944 392.28505242 -97.88451432 393.05293084 -97.61191666 393.8440783 C-89.69785627 416.12408283 -72.92992142 434.5552285 -51.60117447 444.76717401 C-38.11181004 450.57646234 -24.86101008 453.70447228 -10.20440018 453.65287042 C-9.03854345 453.65669596 -7.87268671 453.66052151 -6.67150098 453.66446298 C-3.46215558 453.67294877 -0.25295797 453.67257751 2.9563911 453.66828239 C6.42825769 453.66580347 9.900098 453.67484386 13.3719548 453.68231988 C20.16419924 453.69503774 26.9564041 453.69686413 33.74865844 453.69451962 C39.27413478 453.69273263 44.79959916 453.69449425 50.32507408 453.69874406 C51.50717543 453.69963684 51.50717543 453.69963684 52.71315763 453.70054766 C54.31443832 453.70175949 55.91571901 453.70297362 57.5169997 453.70419004 C72.51865181 453.71505487 87.52028142 453.7129084 102.52193478 453.70680519 C116.22023007 453.70163992 129.91845416 453.71288306 143.61673536 453.73190341 C157.70725572 453.7513172 171.79774247 453.75953143 185.88827628 453.75578016 C193.78887247 453.7538731 201.68940813 453.75630693 209.58999336 453.7704947 C216.31786006 453.78245489 223.04562897 453.78376193 229.77349713 453.77170453 C233.20021435 453.76584748 236.62675314 453.76462724 240.05345809 453.77670693 C259.6456366 453.87627492 259.6456366 453.87627492 278.83632553 450.39217401 C279.97331406 450.10422196 279.97331406 450.10422196 281.13327205 449.8104527 C295.66297993 445.92182011 307.70099391 438.36112064 318.83632553 428.39217401 C319.46925521 427.84174432 320.1021849 427.29131463 320.75429428 426.72420526 C335.1735069 413.36086175 346.16593277 390.64458247 346.92925954 371.00053787 C346.96799942 368.14178908 346.97439001 365.28460222 346.97003829 362.42559075 C346.97230385 361.33030655 346.97456941 360.23502235 346.97690362 359.10654771 C346.98322711 355.44116629 346.9824153 351.775822 346.9815892 348.11043572 C346.98458176 345.48028285 346.98798451 342.85013042 346.99176681 340.21997857 C347.00006076 333.81903388 347.00282111 327.4180984 347.00337919 321.01714878 C347.00385506 315.81052261 347.00591335 310.60389947 347.00907981 305.39727426 C347.01788389 290.61868823 347.02249972 275.84010946 347.02174934 261.0615208 C347.02170938 260.26539222 347.02166943 259.46926363 347.02162826 258.64900994 C347.02158738 257.85190312 347.0215465 257.05479629 347.02150438 256.23353471 C347.02109825 243.32586293 347.03066019 230.41822037 347.04476663 217.51055704 C347.05915398 204.24053496 347.06603548 190.9705271 347.06517285 177.70049703 C347.06484164 170.25712252 347.06755529 162.81377862 347.0783509 155.37041116 C347.08748712 149.03073576 347.08960574 142.69110484 347.08284148 136.35142569 C347.07959161 133.12145582 347.08056515 129.89158821 347.08819473 126.66162324 C347.15179778 97.86023844 343.44322031 72.24231734 322.39101303 50.93904901 C321.54796615 50.09858026 320.70491928 49.25811151 319.83632553 48.39217401 C319.22015365 47.71670526 318.60398178 47.04123651 317.96913803 46.34529901 C303.53137474 30.7331722 280.49271064 23.4796584 259.78091753 22.20398664 C256.69565199 22.13206168 253.61583069 22.11575966 250.52974594 22.12474847 C248.77923262 22.1179518 248.77923262 22.1179518 246.99335539 22.11101782 C243.79465322 22.10064165 240.59609458 22.09903166 237.39738119 22.10140657 C233.93166019 22.10181829 230.4659715 22.09074225 227.00026596 22.08129144 C220.22581364 22.06475739 213.45139615 22.05918538 206.67692533 22.05806668 C201.16488599 22.05711272 195.65285803 22.05298515 190.14082229 22.04666543 C174.47720559 22.02907485 158.81361617 22.0198233 143.14998952 22.02132638 C142.30752532 22.02140629 141.46506113 22.0214862 140.59706771 22.02156854 C139.75356269 22.0216503 138.91005766 22.02173206 138.04099187 22.0218163 C124.3765521 22.02262889 110.71222264 22.00349219 97.04781476 21.9752918 C82.98204893 21.94649449 68.91633678 21.93275522 54.85054076 21.93447936 C46.96778704 21.93514083 39.08514902 21.92975546 31.20242202 21.90812325 C24.49076908 21.88982115 17.77928431 21.88563769 11.06761709 21.8991421 C7.65063051 21.90562636 4.23422605 21.9037383 0.81722915 21.8884356 C-29.33484292 21.76221821 -55.23811233 27.5411886 -77.16367447 49.39217401 Z " fill="#010101" transform="translate(390.1636744737625,172.60782599449158)"/>
<path d="M0 0 C24.75 0 49.5 0 75 0 C75.08825073 33.30039506 75.1620808 66.60067625 75.20426132 99.90115313 C75.2092639 103.83628328 75.21444121 107.77141319 75.21972656 111.70654297 C75.2207758 112.48992693 75.22182505 113.27331089 75.22290608 114.08043376 C75.24029161 126.74999079 75.27181905 139.41947491 75.30861118 152.08898875 C75.34607224 165.0977449 75.36824675 178.10646298 75.37635398 191.11527085 C75.38183107 199.13663821 75.3991038 207.15779946 75.43166587 215.17910334 C75.45539213 221.3391504 75.45780684 227.49904168 75.45243073 233.65912819 C75.45352846 236.17936532 75.4614489 238.69961047 75.4768219 241.21980095 C75.4968359 244.67096602 75.49189689 248.12126193 75.48101807 251.57244873 C75.49266943 252.56081403 75.5043208 253.54917934 75.51632524 254.56749511 C75.42177371 265.72755192 72.25310532 274.81825696 64.43359375 282.8046875 C54.83355528 291.46475431 45.79323744 293.62748033 33.1640625 293.30078125 C22.73721073 292.73293612 15.98086543 287.46313593 9 280 C1.27316759 270.84167022 -0.46511123 260.50416926 -0.36076355 248.80659485 C-0.36332682 247.73547256 -0.3658901 246.66435027 -0.36853105 245.56076974 C-0.37343942 242.00170029 -0.35702454 238.44306302 -0.34057617 234.8840332 C-0.33972926 232.320867 -0.34020628 229.75770008 -0.34190369 227.1945343 C-0.34258499 221.69164425 -0.33412242 216.18889129 -0.31719017 210.68602943 C-0.29272564 202.73001605 -0.28498731 194.77405417 -0.2812262 186.81800725 C-0.27467335 173.90736935 -0.254744 160.99678856 -0.22631836 148.08618164 C-0.19874749 135.55070276 -0.17752876 123.01523944 -0.16479492 110.47973633 C-0.16400675 109.70600744 -0.16321858 108.93227854 -0.16240653 108.13510332 C-0.15849119 104.25322187 -0.15470012 100.37134031 -0.15097082 96.48945868 C-0.11991127 64.32625515 -0.06462791 32.16315795 0 0 Z " fill="#F2F2F2" transform="translate(367,272)"/>
<path d="M0 0 C16.5 0 33 0 50 0 C50.06781692 16.27292982 50.1230398 32.54573834 50.15543652 48.81877041 C50.17088115 56.37524424 50.19192445 63.9316238 50.22631836 71.48803711 C50.2562946 78.07704247 50.27559246 84.66597953 50.28226548 91.2550512 C50.28616388 94.74136793 50.29527491 98.22748931 50.31719017 101.71374321 C50.34150198 105.61315343 50.34196473 109.51237551 50.34057617 113.41186523 C50.351362 114.55770081 50.36214783 115.70353638 50.3732605 116.88409424 C50.34228951 124.93893406 49.32736384 131.44050236 44.875 138.25 C38.4128383 144.43119814 31.33030188 147.39826055 22.4375 147.28125 C15.5845928 146.49052994 9.78663448 142.78663448 5 138 C1.26705239 132.6877284 -0.12659488 128.11401832 -0.12025452 121.6975708 C-0.12162918 120.62347458 -0.12300385 119.54937836 -0.12442017 118.44273376 C-0.12082489 117.26957108 -0.11722961 116.09640839 -0.11352539 114.88769531 C-0.11367142 113.64840775 -0.11381744 112.40912018 -0.1139679 111.13227844 C-0.11339076 107.73797158 -0.10837671 104.3437256 -0.10139394 100.94942951 C-0.09514112 97.40067537 -0.09455507 93.85192042 -0.09336853 90.30316162 C-0.09026091 83.58487802 -0.08205518 76.8666107 -0.07201904 70.14833426 C-0.06084025 62.49905435 -0.055343 54.84977366 -0.05032361 47.20048761 C-0.0398721 31.46698071 -0.02153367 15.73349623 0 0 Z " fill="#000000" transform="translate(380,407)"/>
<path d="M0 0 C6.27 0 12.54 0 19 0 C20.32773438 2.59488281 21.65546875 5.18976562 23.0234375 7.86328125 C24.3472368 10.4486179 25.67140491 13.03376534 26.99560547 15.61889648 C27.89768131 17.38041909 28.79938924 19.14213016 29.70068359 20.90405273 C31.01557007 23.47432523 32.33178813 26.04391142 33.6484375 28.61328125 C34.08460388 29.4656839 34.52077026 30.31808655 34.97015381 31.19631958 C37.24322811 35.62617985 39.54498969 40.03793261 41.89550781 44.42724609 C42.3600235 45.29721725 42.82453918 46.16718842 43.3031311 47.06352234 C44.19153316 48.72287889 45.08516634 50.37944836 45.98471069 52.03279114 C46.38114777 52.7737352 46.77758484 53.51467926 47.18603516 54.27807617 C47.53735504 54.92669113 47.88867493 55.57530609 48.25064087 56.24357605 C49 58 49 58 49 61 C49.66 61 50.32 61 51 61 C51.11069824 60.28585937 51.22139648 59.57171875 51.33544922 58.8359375 C52.0555913 55.76276689 53.16045169 53.41442784 54.6328125 50.625 C55.46111572 49.04295776 55.46111572 49.04295776 56.30615234 47.42895508 C56.90637207 46.2973999 57.5065918 45.16584473 58.125 44 C58.7462932 42.81766257 59.36688674 41.63495724 59.98681641 40.4519043 C61.29946852 37.9476821 62.61484867 35.4449186 63.93164062 32.94287109 C67.10707366 26.89992009 70.23475401 20.83220606 73.3661499 14.76635742 C74.97956355 11.64163133 76.59540076 8.51816015 78.2109375 5.39453125 C79.13132812 3.61433594 80.05171875 1.83414063 81 0 C87.6 0 94.2 0 101 0 C101 33.99 101 67.98 101 103 C95.06 103 89.12 103 83 103 C82.67 80.56 82.34 58.12 82 35 C76.47798604 45.79602244 76.47798604 45.79602244 70.96313477 56.59570312 C65.87493165 66.53476419 60.55050915 76.31171784 55 86 C51.37 86 47.74 86 44 86 C43.49662109 85.01829834 42.99324219 84.03659668 42.47460938 83.02514648 C40.56729673 79.30626002 38.65837664 75.58820048 36.74902344 71.87036133 C35.93024031 70.27552673 35.11186624 68.68048203 34.29394531 67.08520508 C33.10334909 64.76324992 31.91117408 62.44211066 30.71875 60.12109375 C30.36631226 59.43293076 30.01387451 58.74476776 29.65075684 58.03575134 C25.84956485 50.64410136 21.91312589 43.33711104 18 36 C17.67 58.11 17.34 80.22 17 103 C11.39 103 5.78 103 0 103 C0 69.01 0 35.02 0 0 Z " fill="#010101" transform="translate(131,723)"/>
<path d="M0 0 C5.61 0 11.22 0 17 0 C17 33.99 17 67.98 17 103 C11.39 103 5.78 103 0 103 C-0.495 98.545 -0.495 98.545 -1 94 C-1.66 94.9075 -2.32 95.815 -3 96.75 C-7.43640895 102.09644156 -13.8011178 104.55734676 -20.59375 105.2734375 C-29.77086711 105.59414321 -37.22343106 103.67651064 -44.578125 98.015625 C-52.91428785 90.23152591 -57.69915321 80.32032321 -58.3359375 68.88671875 C-58.6050861 56.31067667 -56.33402085 45.87735804 -48 36 C-41.35146388 29.58072375 -33.24573736 25.85560528 -24 25.5 C-15.23477392 25.82672437 -8.24801118 28.91219424 -2 35 C-1.67 35.66 -1.34 36.32 -1 37 C-0.67 24.79 -0.34 12.58 0 0 Z " fill="#010101" transform="translate(384,723)"/>
<path d="M0 0 C5.36113847 4.61307264 8.93088513 10.47579547 10.6875 17.3125 C10.96126693 21.44656335 10.91998028 25.56943183 10.8828125 29.7109375 C10.8799826 30.90103424 10.87715271 32.09113098 10.87423706 33.31729126 C10.86306817 37.10746437 10.83796917 40.89739866 10.8125 44.6875 C10.80246597 47.26171533 10.79334085 49.83593438 10.78515625 52.41015625 C10.76313954 58.71102911 10.72863191 65.0117241 10.6875 71.3125 C4.7475 71.3125 -1.1925 71.3125 -7.3125 71.3125 C-7.8075 67.8475 -7.8075 67.8475 -8.3125 64.3125 C-8.725 64.71082031 -9.1375 65.10914063 -9.5625 65.51953125 C-16.86648485 72.22028521 -23.13545108 73.91722167 -33.0546875 73.6640625 C-40.53479644 72.8568565 -46.5232824 70.22859232 -51.3125 64.3125 C-56.40030057 57.38743812 -56.95401511 51.77556467 -56.3125 43.3125 C-54.5068086 37.44400294 -50.48147206 33.45651393 -45.3125 30.3125 C-33.04573085 25.3739306 -20.31349339 25.84509703 -7.3125 26.3125 C-7.42759661 24.89499437 -7.55503658 23.47848831 -7.6875 22.0625 C-7.79191406 20.87914062 -7.79191406 20.87914062 -7.8984375 19.671875 C-8.57323176 15.82682091 -9.56395494 13.84991697 -12.75 11.5625 C-18.98304712 9.37546592 -24.8592331 9.15042621 -30.875 12 C-33.75564977 14.41029807 -33.75564977 14.41029807 -35.3125 19.3125 C-41.2525 19.3125 -47.1925 19.3125 -53.3125 19.3125 C-52.04223567 11.18280826 -49.67789084 5.60479309 -42.9765625 0.55078125 C-28.96233626 -8.3536425 -14.53819636 -7.40625098 0 0 Z " fill="#040404" transform="translate(581.3125,754.6875)"/>
<path d="M0 0 C8.50012821 6.9889943 12.99933709 13.43352257 14.8125 24.3125 C14.8125 28.9325 14.8125 33.5525 14.8125 38.3125 C-3.3375 38.3125 -21.4875 38.3125 -40.1875 38.3125 C-37.48209222 48.12170479 -37.48209222 48.12170479 -31.1875 55.3125 C-25.71833275 58.06087144 -20.17655412 57.86433697 -14.1875 57.3125 C-10.71653143 56.03996144 -10.71653143 56.03996144 -8.1875 54.3125 C-7.1975 53.9825 -6.2075 53.6525 -5.1875 53.3125 C-4.5275 51.9925 -3.8675 50.6725 -3.1875 49.3125 C2.4225 49.6425 8.0325 49.9725 13.8125 50.3125 C8.5637888 61.92328538 2.85014427 67.7541693 -8.92578125 72.390625 C-18.64812672 75.13849749 -29.56814823 74.26904389 -38.60546875 69.85546875 C-47.94069094 64.27693204 -54.94519589 55.95207629 -57.71484375 45.3046875 C-59.77181386 32.28287669 -58.88856176 19.39067889 -50.9375 8.4375 C-37.37641505 -7.41721454 -18.04790008 -9.55477063 0 0 Z " fill="#020202" transform="translate(302.1875,754.6875)"/>
<path d="M0 0 C7.01095861 5.19551447 11.19403998 12.30350367 13.29296875 20.69921875 C13.29296875 26.30921875 13.29296875 31.91921875 13.29296875 37.69921875 C-4.52703125 37.69921875 -22.34703125 37.69921875 -40.70703125 37.69921875 C-37.87310529 49.0618546 -37.87310529 49.0618546 -30.14453125 55.51171875 C-24.48953882 57.46526159 -18.21671788 57.89990102 -12.48046875 55.9375 C-9.81854023 54.50458954 -7.99305471 53.23992064 -6.56640625 50.54296875 C-4.70703125 48.69921875 -4.70703125 48.69921875 -2.87719727 48.47167969 C-0.57238019 48.53047999 1.68718569 48.71217719 3.98046875 48.94921875 C4.77775391 49.01496094 5.57503906 49.08070313 6.39648438 49.1484375 C8.36363482 49.31334832 10.32860997 49.50384469 12.29296875 49.69921875 C11.19705054 57.05206538 6.09405782 62.81861178 0.375 67.37890625 C-9.50821631 73.64631171 -21.57221493 74.24044493 -32.8203125 72.109375 C-42.14435351 69.24754063 -50.05634357 62.28916656 -54.74609375 53.7578125 C-59.86071049 42.80088965 -60.94495135 29.16297905 -57.08203125 17.57421875 C-52.54833624 7.18648947 -45.2224228 -0.16019902 -34.8203125 -4.5390625 C-23.04575473 -8.78312676 -10.34679849 -6.62515934 0 0 Z " fill="#020202" transform="translate(759.70703125,755.30078125)"/>
<path d="M0 0 C4.45516122 3.62629402 8.0902971 7.52468971 9.6875 13.1875 C9.6875 14.8375 9.6875 16.4875 9.6875 18.1875 C4.0775 18.1875 -1.5325 18.1875 -7.3125 18.1875 C-8.3025 16.2075 -9.2925 14.2275 -10.3125 12.1875 C-14.29305605 9.37435754 -18.63104338 9.69968435 -23.3125 10.1875 C-26.28686509 10.79451328 -27.6649734 11.47763907 -30.3125 13.1875 C-31.80858434 16.57625038 -31.80858434 16.57625038 -31.3125 20.1875 C-27.11780833 24.80950954 -21.97489306 25.4434415 -16.125 26.625 C-5.31284411 29.02277143 4.36247405 31.33819759 10.6875 41.1875 C12.69781205 47.21843615 12.79455457 54.60125986 10.25 60.5 C6.65610791 66.55287089 0.73237949 70.73489043 -5.8125 73.125 C-16.70800593 75.84462707 -29.34906731 75.61748624 -39.3125 70.1875 C-45.16915004 66.57241958 -48.45543799 61.81986431 -50.3125 55.1875 C-50.3125 53.5375 -50.3125 51.8875 -50.3125 50.1875 C-45.0325 50.1875 -39.7525 50.1875 -34.3125 50.1875 C-33.40104167 51.9453125 -32.48958333 53.703125 -31.578125 55.4609375 C-29.98964897 57.62793258 -28.84228815 58.28654036 -26.3125 59.1875 C-19.89043921 59.87621683 -13.75181735 60.05227812 -8.3125 56.1875 C-6.14632585 52.93823878 -6.09914331 52.5889758 -6.6875 49 C-6.89375 47.741875 -7.1 46.48375 -7.3125 45.1875 C-13.2997231 43.46464601 -19.25438526 41.98567369 -25.375 40.8125 C-34.54054452 38.87286174 -41.92826731 36.09559177 -47.3125 28.1875 C-50.32978318 23.20149304 -49.89844833 17.83188835 -49.3125 12.1875 C-47.57300923 6.51071874 -43.18633028 2.34275953 -38.3125 -0.8125 C-26.12235474 -7.20441058 -11.95278082 -6.54020083 0 0 Z " fill="#020202" transform="translate(832.3125,753.8125)"/>
<path d="M0 0 C24.75 0 49.5 0 75 0 C75 5.28 75 10.56 75 16 C65.76 16 56.52 16 47 16 C47 44.71 47 73.42 47 103 C41.06 103 35.12 103 29 103 C29 74.62 29 46.24 29 17 C19.43 17 9.86 17 0 17 C0 11.39 0 5.78 0 0 Z " fill="#030303" transform="translate(634,723)"/>
<path d="M0 0 C7.04216702 6.04061438 11.92214094 11.70353309 13.19921875 21.01171875 C10.28032727 21.17387939 7.3704265 21.29263077 4.44921875 21.38671875 C3.62421875 21.43699219 2.79921875 21.48726562 1.94921875 21.5390625 C-0.4380111 21.59681806 -2.4777738 21.5738278 -4.80078125 21.01171875 C-7.22265625 18.13671875 -7.22265625 18.13671875 -8.80078125 15.01171875 C-12.60013295 11.40233464 -15.64696734 10.70240466 -20.73828125 10.51171875 C-26.35786454 10.7342765 -29.43148694 11.44494789 -33.80078125 15.01171875 C-39.72589084 22.70043798 -40.41172589 29.44765807 -39.80078125 39.01171875 C-38.6366396 45.21741873 -36.24659384 49.56590616 -31.80078125 54.01171875 C-26.72106194 57.28206901 -20.59412108 56.57692264 -14.80078125 56.01171875 C-11.71538792 55.07546146 -10.39681705 54.11064131 -7.80078125 52.01171875 C-7.26066406 50.97015625 -6.72054687 49.92859375 -6.1640625 48.85546875 C-3.80078125 46.01171875 -3.80078125 46.01171875 -1.88842773 45.61962891 C0.42762336 45.6458804 2.65138163 45.84710744 4.94921875 46.13671875 C5.74199219 46.21148438 6.53476562 46.28625 7.3515625 46.36328125 C9.30368187 46.55143733 11.25204241 46.77788753 13.19921875 47.01171875 C12.26747938 54.55230716 8.54107576 60.06284492 3.07421875 65.26171875 C-5.81683843 72.19635594 -15.79346081 74.3612841 -26.84326172 73.29833984 C-35.81426939 71.98479993 -43.92048276 67.92576834 -49.80078125 61.01171875 C-52.12398964 57.81332912 -54.03605927 54.54666028 -55.80078125 51.01171875 C-56.14238281 50.33753906 -56.48398437 49.66335938 -56.8359375 48.96875 C-60.5325814 40.07961094 -60.19810947 28.01620342 -57.17578125 18.94921875 C-52.58344318 8.33545839 -44.63909772 0.22161416 -33.9765625 -4.26171875 C-22.69466939 -8.02910137 -9.78495138 -6.94636019 0 0 Z " fill="#020202" transform="translate(503.80078125,754.98828125)"/>
<path d="M0 0 C5.94 0 11.88 0 18 0 C18 6.93 18 13.86 18 21 C22.95 21 27.9 21 33 21 C33 25.95 33 30.9 33 36 C28.05 36 23.1 36 18 36 C18.04413411 41.76635004 18.11394772 47.53160315 18.20751953 53.29736328 C18.23573553 55.25853747 18.25694694 57.21982551 18.27099609 59.18115234 C18.29241699 62.00156977 18.33906209 64.82061743 18.390625 67.640625 C18.39185364 68.51680481 18.39308228 69.39298462 18.39434814 70.29571533 C18.49896064 75.26273158 18.49896064 75.26273158 20.84960938 79.546875 C23.6978512 81.47157247 25.83656547 81.6015898 29.25 81.75 C31.1475 81.8325 33.045 81.915 35 82 C35 86.62 35 91.24 35 96 C29.37099846 98.81450077 19.76296231 97.82820139 13.859375 96.05859375 C7.51730316 93.02996962 3.82943288 89.61873371 1.4206543 82.95727539 C-0.22680844 77.88264596 -0.38702845 73.23222893 -0.29296875 67.93359375 C-0.28872391 67.01409439 -0.28447906 66.09459503 -0.28010559 65.14723206 C-0.26346776 62.24367541 -0.22584467 59.34084274 -0.1875 56.4375 C-0.17243386 54.45508823 -0.15874886 52.47266546 -0.14648438 50.49023438 C-0.11361326 45.65988222 -0.06193611 40.83006336 0 36 C-3.96 36 -7.92 36 -12 36 C-12 31.05 -12 26.1 -12 21 C-8.04 21 -4.08 21 0 21 C0 14.07 0 7.14 0 0 Z " fill="#030303" transform="translate(860,730)"/>
<path d="M0 0 C5.61 0 11.22 0 17 0 C17 33.99 17 67.98 17 103 C11.39 103 5.78 103 0 103 C0 69.01 0 35.02 0 0 Z " fill="#000000" transform="translate(606,723)"/>
<path d="M0 0 C6.17932239 2.73722836 9.10303454 7.11927162 11.9921875 13.03515625 C13.84887398 21.9810093 13.46789255 31.22204808 8.578125 39.12890625 C5.7764599 42.81625903 3.05794511 44.94035916 -1.3203125 46.34765625 C-7.24386069 46.95965549 -12.43562533 47.2404028 -17.8828125 44.66015625 C-24.82962007 38.06959522 -27.44922824 31.96622865 -27.8203125 22.47265625 C-27.63995583 14.4682554 -25.52341568 8.47263496 -19.7578125 2.84765625 C-13.3630898 -1.08755772 -7.4050793 -2.0818994 0 0 Z " fill="#F1F1F1" transform="translate(371.3203125,765.65234375)"/>
<path d="M0 0 C5.94 0 11.88 0 18 0 C18 24.75 18 49.5 18 75 C12.06 75 6.12 75 0 75 C0 50.25 0 25.5 0 0 Z " fill="#050505" transform="translate(416,751)"/>
<path d="M0 0 C0.87914062 0.00451172 1.75828125 0.00902344 2.6640625 0.01367188 C4.81773803 0.02537663 6.97137817 0.04330931 9.125 0.0625 C9.29929448 6.47117386 8.97501848 10.75253568 5.125 16.0625 C0.21734418 19.96859341 -3.55607982 21.21982289 -9.75 21.3125 C-11.29300781 21.35117187 -11.29300781 21.35117187 -12.8671875 21.390625 C-16.28582433 21.0176828 -18.11277612 20.06915997 -20.875 18.0625 C-23.20380181 14.84653559 -23.1992679 11.95371476 -22.875 8.0625 C-21.96263654 5.15952535 -21.07649539 4.21362154 -18.625 2.375 C-12.707318 -0.44934823 -6.41468978 -0.0627944 0 0 Z " fill="#F2F2F2" transform="translate(564.875,792.9375)"/>
<path d="M0 0 C3.48647267 2.51350355 6.54718123 5.17276992 8.6875 8.9375 C9.1825 12.4025 9.1825 12.4025 9.6875 15.9375 C-2.5225 15.9375 -14.7325 15.9375 -27.3125 15.9375 C-26.08610451 8.57912706 -23.60478175 4.38757014 -17.625 -0.0625 C-11.70012852 -1.85114045 -5.90015287 -1.89250186 0 0 Z " fill="#F2F2F2" transform="translate(746.3125,765.0625)"/>
<path d="M0 0 C3.38050004 1.96000709 5.66281397 3.85905259 7.625 7.3125 C8.12 11.2725 8.12 11.2725 8.625 15.3125 C-3.585 15.3125 -15.795 15.3125 -28.375 15.3125 C-24.99143836 5.16181507 -24.99143836 5.16181507 -21.375 2.3125 C-20.694375 1.755625 -20.01375 1.19875 -19.3125 0.625 C-13.71599285 -3.16618227 -5.96280215 -2.77443702 0 0 Z " fill="#F2F3F2" transform="translate(290.375,765.6875)"/>
<path d="M0 0 C0.33 0 0.66 0 1 0 C1.0231206 13.54264178 1.04091364 27.0852789 1.05181217 40.62793636 C1.05704162 46.91562024 1.06414039 53.20329066 1.07543945 59.4909668 C1.08626614 65.55337723 1.09227637 71.61577469 1.09487724 77.67819405 C1.09673189 79.99676277 1.10035325 82.31533074 1.10573006 84.63389397 C1.11293758 87.86914508 1.11399106 91.10434183 1.11352539 94.33959961 C1.11712067 95.30848114 1.12071594 96.27736267 1.12442017 97.27560425 C1.1230455 98.15205093 1.12167084 99.02849762 1.12025452 99.9315033 C1.12117631 100.69751327 1.1220981 101.46352324 1.12304783 102.25274563 C1 104 1 104 0 105 C-6.6 105 -13.2 105 -20 105 C-20.33 83.55 -20.66 62.1 -21 40 C-22.65 43.3 -24.3 46.6 -26 50 C-26.66 49.67 -27.32 49.34 -28 49 C-25.36 43.72 -22.72 38.44 -20 33 C-19.67 33 -19.34 33 -19 33 C-19 56.1 -19 79.2 -19 103 C-13.06 103 -7.12 103 -1 103 C-1.00222061 101.72435684 -1.00444122 100.44871368 -1.00672913 99.13441467 C-1.02695827 87.14106852 -1.04197104 75.14772581 -1.05181217 63.15436649 C-1.05704158 56.9877508 -1.06414027 50.82114882 -1.07543945 44.65454102 C-1.08626629 38.70883994 -1.0922764 32.76315211 -1.09487724 26.81744194 C-1.09673186 24.54353057 -1.10035317 22.26961996 -1.10573006 19.99571419 C-1.11293778 16.8227288 -1.11399106 13.64979883 -1.11352539 10.47680664 C-1.11712067 9.52662659 -1.12071594 8.57644653 -1.12442017 7.59747314 C-1.11405216 1.11405216 -1.11405216 1.11405216 0 0 Z " fill="#F5F4F4" transform="translate(233,723)"/>
<path d="M0 0 C3.72475975 2.10529899 4.77722097 3.24812078 6 7.375 C6 11.50511341 5.23920045 13.56122789 3 17 C-1.03485494 19.68990329 -4.26228652 19.77993882 -9 19 C-12.0625 17.0625 -12.0625 17.0625 -14 14 C-14.69022545 10.84549858 -14.73034598 8.14961704 -14 5 C-9.54542867 -0.62682695 -6.93538616 -1.52813593 0 0 Z " fill="#070707" transform="translate(429,722)"/>
<path d="M0 0 C0.78503906 -0.00386719 1.57007813 -0.00773438 2.37890625 -0.01171875 C8.24669213 -0.00165394 8.24669213 -0.00165394 10.5 1.125 C10.5 35.445 10.5 69.765 10.5 105.125 C10.17 105.125 9.84 105.125 9.5 105.125 C9.5 71.135 9.5 37.145 9.5 2.125 C3.56 2.125 -2.38 2.125 -8.5 2.125 C-8.5 14.665 -8.5 27.205 -8.5 40.125 C-13.5 35.125 -13.5 35.125 -14.5 33.125 C-13.51 33.455 -12.52 33.785 -11.5 34.125 C-11.17 23.235 -10.84 12.345 -10.5 1.125 C-7.21855481 -0.51572259 -3.60210004 -0.01774434 0 0 Z " fill="#FBFBFB" transform="translate(392.5,720.875)"/>
<path d="M0 0 C10.02227763 -0.0231241 20.04454897 -0.04091543 30.0668478 -0.05181217 C34.72011186 -0.05704085 39.37335774 -0.06413823 44.02661133 -0.07543945 C48.51344546 -0.08626886 53.00026204 -0.09227695 57.48710823 -0.09487724 C59.20280293 -0.0967314 60.91849662 -0.10035182 62.63418388 -0.10573006 C65.02884913 -0.11294121 67.42344096 -0.11399091 69.81811523 -0.11352539 C70.53452682 -0.11712067 71.25093842 -0.12071594 71.98905945 -0.12442017 C76.88594784 -0.11405216 76.88594784 -0.11405216 78 1 C78.08631874 2.34267413 78.10706473 3.68974322 78.09765625 5.03515625 C78.09515869 5.76355713 78.09266113 6.49195801 78.09008789 7.24243164 C78.08098389 8.1730542 78.07187988 9.10367676 78.0625 10.0625 C78.041875 13.011875 78.02125 15.96125 78 19 C68.1 19 58.2 19 48 19 C48 18.67 48 18.34 48 18 C57.24 18 66.48 18 76 18 C76 12.72 76 7.44 76 2 C50.92 2 25.84 2 0 2 C0 1.34 0 0.68 0 0 Z " fill="#E3E3E3" transform="translate(633,721)"/>
<path d="M0 0 C2.30619448 3.07492597 4.03309044 5.74167823 5.75 9.125 C6.19859375 9.99382813 6.6471875 10.86265625 7.109375 11.7578125 C7.55023438 12.86769531 7.55023438 12.86769531 8 14 C7.67 14.66 7.34 15.32 7 16 C5.02 12.535 5.02 12.535 3 9 C2.82511781 13.74972584 2.65930015 18.49972833 2.5 23.25 C2.47599121 23.96319397 2.45198242 24.67638794 2.42724609 25.41119385 C2.04191181 37.10982488 1.91692549 48.78397986 2.03710938 60.48925781 C2.04548828 61.58334961 2.05386719 62.67744141 2.0625 63.8046875 C2.07410156 64.76358887 2.08570313 65.72249023 2.09765625 66.71044922 C2 69 2 69 1 71 C-4.94 71 -10.88 71 -17 71 C-17 70.67 -17 70.34 -17 70 C-11.39 70 -5.78 70 0 70 C0 46.9 0 23.8 0 0 Z " fill="#FBFBFB" transform="translate(148,757)"/>
<path d="M0 0 C0.33 0 0.66 0 1 0 C1.223293 2.06093408 1.42802887 4.1238839 1.625 6.1875 C1.74101562 7.33605469 1.85703125 8.48460937 1.9765625 9.66796875 C2 13 2 13 0 18 C-17.49 18 -34.98 18 -53 18 C-53.33 19.32 -53.66 20.64 -54 22 C-54.33 20.02 -54.66 18.04 -55 16 C-36.85 16 -18.7 16 0 16 C0 10.72 0 5.44 0 0 Z " fill="#F9F8F8" transform="translate(317,777)"/>
<path d="M0 0 C0.33 0 0.66 0 1 0 C1 23.43 1 46.86 1 71 C6.94 71 12.88 71 19 71 C19 71.33 19 71.66 19 72 C12.73 72 6.46 72 0 72 C-0.33 50.55 -0.66 29.1 -1 7 C-2.65 10.3 -4.3 13.6 -6 17 C-6.66 16.67 -7.32 16.34 -8 16 C-5.36 10.72 -2.72 5.44 0 0 Z " fill="#FEFEFE" transform="translate(213,756)"/>
<path d="M0 0 C0.33 0 0.66 0 1 0 C1 5.61 1 11.22 1 17 C-3.62 17 -8.24 17 -13 17 C-12.97679687 19.05863281 -12.95359375 21.11726562 -12.9296875 23.23828125 C-12.91578031 25.23396319 -12.90194417 27.22964633 -12.89013672 29.2253418 C-12.8800843 30.61144048 -12.8664403 31.99751799 -12.84912109 33.38354492 C-12.82484048 35.3766975 -12.81457969 37.37000533 -12.8046875 39.36328125 C-12.79421387 40.56251221 -12.78374023 41.76174316 -12.77294922 42.99731445 C-13 46 -13 46 -15 49 C-15 37.78 -15 26.56 -15 15 C-10.05 15 -5.1 15 0 15 C0 10.05 0 5.1 0 0 Z " fill="#E9E9E9" transform="translate(893,751)"/>
<path d="M0 0 C0.79921875 0.00902344 1.5984375 0.01804687 2.421875 0.02734375 C3.02515625 0.03894531 3.6284375 0.05054688 4.25 0.0625 C4.25 0.7225 4.25 1.3825 4.25 2.0625 C-0.37 2.7225 -4.99 3.3825 -9.75 4.0625 C-10.08 6.3725 -10.41 8.6825 -10.75 11.0625 C-11.74 11.0625 -12.73 11.0625 -13.75 11.0625 C-13.26164432 4.59178723 -13.26164432 4.59178723 -10.9375 2.1875 C-7.28104535 0.30703761 -4.08459361 -0.06006755 0 0 Z " fill="#E0E0E0" transform="translate(813.75,762.9375)"/>
<path d="M0 0 C2.55341897 3.79201772 1.92805592 6.73596233 1.25 11.125 C1.06953125 12.36507813 0.8890625 13.60515625 0.703125 14.8828125 C0 18 0 18 -2 20 C-3.13879395 15.09790683 -2.71241384 11.50063468 -1.5625 6.625 C-1.13130859 4.75714844 -1.13130859 4.75714844 -0.69140625 2.8515625 C-0.46324219 1.91054688 -0.23507812 0.96953125 0 0 Z " fill="#E5E5E5" transform="translate(546,460)"/>
<path d="M0 0 C0.66 0.33 1.32 0.66 2 1 C0.35 1.66 -1.3 2.32 -3 3 C-2.01 2.01 -1.02 1.02 0 0 Z M-5 3 C-4.01 3.495 -4.01 3.495 -3 4 C-3.99 4.495 -3.99 4.495 -5 5 C-5 4.34 -5 3.68 -5 3 Z M-6 5 C-5.67 5 -5.34 5 -5 5 C-4.92652344 6.17369141 -4.92652344 6.17369141 -4.8515625 7.37109375 C-4.77679687 8.38300781 -4.70203125 9.39492188 -4.625 10.4375 C-4.55539062 11.44683594 -4.48578125 12.45617187 -4.4140625 13.49609375 C-4.27742187 14.32238281 -4.14078125 15.14867187 -4 16 C-3.34 16.33 -2.68 16.66 -2 17 C-2.99 17 -3.98 17 -5 17 C-7.09440189 13.59659693 -7.25797575 10.95562822 -7 7 C-6.67 6.34 -6.34 5.68 -6 5 Z " fill="#E7E7E7" transform="translate(549,794)"/>
<path d="M0 0 C0.66 0 1.32 0 2 0 C2.33 3.3 2.66 6.6 3 10 C2.01 10 1.02 10 0 10 C0 11.32 0 12.64 0 14 C-0.66 14 -1.32 14 -2 14 C-1.34 9.38 -0.68 4.76 0 0 Z " fill="#E3E4E4" transform="translate(569,353)"/>
<path d="M0 0 C3 1 3 1 4.38671875 3.43359375 C4.81597656 4.42488281 5.24523437 5.41617188 5.6875 6.4375 C6.34298828 7.92056641 6.34298828 7.92056641 7.01171875 9.43359375 C8 12 8 12 8 14 C7.34 14 6.68 14 6 14 C4.99515796 12.04414675 3.99626195 10.08523763 3 8.125 C2.1646875 6.48917969 2.1646875 6.48917969 1.3125 4.8203125 C0 2 0 2 0 0 Z " fill="#E6E6E6" transform="translate(168,758)"/>
<path d="M0 0 C0.66 0 1.32 0 2 0 C1.49452628 4.08055151 -0.50088882 5.66272295 -3.5625 8.25 C-4.38878906 8.95640625 -5.21507812 9.6628125 -6.06640625 10.390625 C-6.70449219 10.92171875 -7.34257813 11.4528125 -8 12 C-8.66 11.67 -9.32 11.34 -10 11 C-9.36191406 10.37351562 -8.72382812 9.74703125 -8.06640625 9.1015625 C-7.24011719 8.28429687 -6.41382813 7.46703125 -5.5625 6.625 C-4.73878906 5.81289063 -3.91507813 5.00078125 -3.06640625 4.1640625 C-0.96565328 2.17651485 -0.96565328 2.17651485 0 0 Z " fill="#E9E9E8" transform="translate(734,605)"/>
<path d="M0 0 C0.66 1.32 1.32 2.64 2 4 C1.34 4 0.68 4 0 4 C0.33 4.99 0.66 5.98 1 7 C0.34 7 -0.32 7 -1 7 C-0.79375 7.556875 -0.5875 8.11375 -0.375 8.6875 C0.10695211 11.659538 -0.73434972 13.31979941 -2 16 C-2.66 16 -3.32 16 -4 16 C-2.98408579 10.53135543 -1.92908943 5.23609987 0 0 Z " fill="#E6E6E6" transform="translate(293,252)"/>
<path d="M0 0 C0.33 0 0.66 0 1 0 C1.1875 2.8125 1.1875 2.8125 1 6 C0.02246356 7.02196992 -0.9805881 8.01979625 -2 9 C-3.19599068 11.03232242 -3.19599068 11.03232242 -4.1875 13.1875 C-4.53167969 13.90292969 -4.87585938 14.61835937 -5.23046875 15.35546875 C-5.61138672 16.16951172 -5.61138672 16.16951172 -6 17 C-6.66 16.67 -7.32 16.34 -8 16 C-5.36 10.72 -2.72 5.44 0 0 Z " fill="#F8F8F8" transform="translate(213,756)"/>
<path d="M0 0 C2.29257254 4.00318435 2.00301452 6.48643465 1 11 C0.34 11.66 -0.32 12.32 -1 13 C-2.07310858 9.72814447 -1.89263102 7.57052408 -1.0625 4.25 C-0.86785156 3.45078125 -0.67320312 2.6515625 -0.47265625 1.828125 C-0.31667969 1.22484375 -0.16070313 0.6215625 0 0 Z " fill="#E5E5E5" transform="translate(558,405)"/>
<path d="M0 0 C0.66 0.66 1.32 1.32 2 2 C1.625 5.625 1.625 5.625 1 9 C0.01 9.33 -0.98 9.66 -2 10 C-1.85950482 8.52031676 -1.71245174 7.04125484 -1.5625 5.5625 C-1.48128906 4.73878906 -1.40007812 3.91507813 -1.31640625 3.06640625 C-1 1 -1 1 0 0 Z " fill="#E9E9E8" transform="translate(346,777)"/>
<path d="M0 0 C0.99 0 1.98 0 3 0 C1.78184562 4.68520915 0.30440013 8.70543612 -2 13 C-3.45047396 10.09905209 -2.45356803 8.44027404 -1.5625 5.375 C-1.27503906 4.37210938 -0.98757813 3.36921875 -0.69140625 2.3359375 C-0.46324219 1.56507813 -0.23507812 0.79421875 0 0 Z " fill="#E6E6E6" transform="translate(756,559)"/>
<path d="M0 0 C1.67110042 2.96178773 2.32682752 5.37071192 2.625 8.75 C2.69976563 9.54921875 2.77453125 10.3484375 2.8515625 11.171875 C2.90054688 11.77515625 2.94953125 12.3784375 3 13 C1 12 1 12 -0.1875 8.75 C-0.95061988 5.22790825 -1.0252106 3.38319499 0 0 Z " fill="#E6E6E6" transform="translate(596,476)"/>
<path d="M0 0 C0.66 0 1.32 0 2 0 C2.66 3.96 3.32 7.92 4 12 C3.34 12 2.68 12 2 12 C1.66269158 10.56342755 1.33030409 9.12569907 1 7.6875 C0.814375 6.88699219 0.62875 6.08648437 0.4375 5.26171875 C0 3 0 3 0 0 Z " fill="#E5E5E5" transform="translate(582,415)"/>
<path d="M0 0 C0.33 0 0.66 0 1 0 C1.22245393 1.60226955 1.42746669 3.20696767 1.625 4.8125 C1.74101563 5.70582031 1.85703125 6.59914063 1.9765625 7.51953125 C2 10 2 10 0 13 C-0.19466332 11.20909747 -0.38051213 9.41723495 -0.5625 7.625 C-0.66691406 6.62726563 -0.77132812 5.62953125 -0.87890625 4.6015625 C-1 2 -1 2 0 0 Z " fill="#E8E8E8" transform="translate(577,387)"/>
<path d="M0 0 C1.98 0.99 1.98 0.99 4 2 C3.67 4.31 3.34 6.62 3 9 C1.35173889 6.03312999 0.55728913 3.34373475 0 0 Z " fill="#ECECEC" transform="translate(529,426)"/>
<path d="M0 0 C0.99 0.33 1.98 0.66 3 1 C2.67 3.31 2.34 5.62 2 8 C1.01 8 0.02 8 -1 8 C-0.67 5.36 -0.34 2.72 0 0 Z " fill="#E5E5E5" transform="translate(566,368)"/>
<path d="M0 0 C3.55780196 0.60990891 6.6828589 1.5783681 10 3 C10 3.33 10 3.66 10 4 C6.05272412 4.17942163 3.4019487 4.09350689 0 2 C0 1.34 0 0.68 0 0 Z " fill="#E3E3E3" transform="translate(260,823)"/>
<path d="M0 0 C0 0.33 0 0.66 0 1 C-2.97 1.66 -5.94 2.32 -9 3 C-9 2.01 -9 1.02 -9 0 C-5.67465243 -1.10844919 -3.37817425 -0.84454356 0 0 Z " fill="#EBECEB" transform="translate(366,197)"/>
<path d="M0 0 C0.625 1.875 0.625 1.875 1 4 C0.34 4.66 -0.32 5.32 -1 6 C-1.99 5.67 -2.98 5.34 -4 5 C-2.68 3.35 -1.36 1.7 0 0 Z " fill="#E7E7E7" transform="translate(306,230)"/>
</svg>
